<svg width="16" height="16" viewBox="0 0 16 16" fill="none" xmlns="http://www.w3.org/2000/svg">
  <path d="M8 0C3.58 0 0 3.58 0 8C0 11.42 2.29 14.19 5.47 15.25C5.87 15.32 6 15.07 6 14.87V13.2C3.73 13.73 3.27 12.37 3.27 12.37C2.91 11.41 2.38 11.14 2.38 11.14C1.66 10.66 2.43 10.67 2.43 10.67C3.22 10.73 3.65 11.49 3.65 11.49C4.35 12.63 5.53 12.31 5.97 12.13C6.04 11.59 6.27 11.23 6.53 11.03C4.76 10.83 2.91 10.19 2.91 7.26C2.91 6.44 3.23 5.77 3.75 5.26C3.67 5.06 3.39 4.27 3.83 3.22C3.83 3.22 4.52 3 6 4C6.65 3.83 7.35 3.76 8.05 3.76C8.75 3.76 9.45 3.83 10.1 4C11.48 3 12.17 3.22 12.17 3.22C12.61 4.27 12.33 5.06 12.25 5.26C12.77 5.77 13.09 6.44 13.09 7.26C13.09 10.2 11.23 10.82 9.46 11.02C9.77 11.26 10.03 11.76 10.03 12.55V14.87C10.03 15.07 10.16 15.32 10.56 15.25C13.73 14.19 16 11.42 16 8C16 3.58 12.42 0 8 0Z" fill="white"/>
</svg>
